<?xml version="1.0"?>
<svg xmlns="http://www.w3.org/2000/svg" xmlns:xlink="http://www.w3.org/1999/xlink" xmlns:svgjs="http://svgjs.com/svgjs" version="1.1" width="512" height="512" x="0" y="0" viewBox="0 0 512 512" style="enable-background:new 0 0 512 512" xml:space="preserve" class=""><g><g xmlns="http://www.w3.org/2000/svg"><path d="m497 221h-89.985c-15.909-68.667-77.58-120-151.015-120s-135.106 51.333-151.015 120h-89.985c-8.284 0-15 6.716-15 15v40c0 8.284 6.716 15 15 15h89.985c15.909 68.667 77.58 120 151.015 120s135.106-51.333 151.015-120h89.985c8.284 0 15-6.716 15-15v-40c0-8.284-6.716-15-15-15zm-241 120c-46.869 0-85-38.131-85-85s38.131-85 85-85 85 38.131 85 85-38.131 85-85 85z" fill="#fffafa" data-original="#000000" style="" class=""/></g></g></svg>
